<svg xmlns="http://www.w3.org/2000/svg" viewBox="0 0 300 120" fill="none">
  <circle cx="90" cy="40" r="24" fill="#1B8DB8"/>
  <circle cx="150" cy="40" r="24" fill="#D4A820"/>
  <circle cx="210" cy="40" r="24" fill="#B5377B"/>
  <rect x="79" y="30" width="22" height="18" rx="2" stroke="white" stroke-width="1.5" fill="none"/>
  <line x1="79" y1="35" x2="101" y2="35" stroke="white" stroke-width="1.5"/>
  <line x1="83" y1="30" x2="83" y2="35" stroke="white" stroke-width="1.5"/>
  <line x1="89" y1="30" x2="89" y2="35" stroke="white" stroke-width="1.5"/>
  <line x1="95" y1="30" x2="95" y2="35" stroke="white" stroke-width="1.5"/>
  <polygon points="86,38 86,45 93,41.5" fill="white"/>
  <rect x="145" y="28" width="10" height="16" rx="5" stroke="white" stroke-width="1.5" fill="none"/>
  <path d="M139 42 Q139 52 150 52 Q161 52 161 42" stroke="white" stroke-width="1.5" fill="none"/>
  <line x1="150" y1="52" x2="150" y2="56" stroke="white" stroke-width="1.5"/>
  <rect x="199" y="33" width="22" height="16" rx="2" stroke="white" stroke-width="1.5" fill="none"/>
  <circle cx="210" cy="41" r="5" stroke="white" stroke-width="1.5" fill="none"/>
  <rect x="205" y="30" width="8" height="4" rx="1" fill="white" opacity="0.8"/>
  <text x="150" y="88" font-family="Arial Black, Arial, sans-serif" font-weight="900" font-size="28" fill="white" text-anchor="middle" letter-spacing="6">SKYPOL</text>
  <text x="150" y="106" font-family="Arial, sans-serif" font-weight="400" font-size="10" fill="rgba(255,255,255,0.7)" text-anchor="middle" letter-spacing="5">arts &amp; media</text>
</svg>
